# xmcd
#
# Track frame offsets:
#	150
#	11192
#	22535
#	35422
#	46432
#	59185
#	70993
#	81144
#	91273
#	104023
#	116867
#	128062
#
# Disc length: 1861 seconds
#
# Revision: 1
# Processed by: cddbd v1.5.2PL0 Copyright (c) Steve Scherf et al.
# Submitted via: audiograbber 1.83.01
#
DISCID=a307430c
DTITLE=Robert Johnson - Crossroad Blues
DYEAR=1900
DGENRE=Blues
TTITLE0=Love in Vain
TTITLE1=Me and the Devil Blues
TTITLE2=Rambling on My Mind (Take 2)
TTITLE3=Stones in My Passway
TTITLE4=Come On In My Kitchen (Take 2)
TTITLE5=When You Got a Good Friend
TTITLE6=Stop Breakin' Down Blues
TTITLE7=Milkcow's Calf Blues
TTITLE8=Preaching Blues (Up Jumoed the Devil)
TTITLE9=32-20 Blues
TTITLE10=Cross Road Blues (Take 1)
TTITLE11=If I Had Possesion Over Judgement Day
EXTD=Legacy Entertainment Inc.
EXTT0=
EXTT1=
EXTT2=
EXTT3=
EXTT4=
EXTT5=
EXTT6=
EXTT7=
EXTT8=
EXTT9=
EXTT10=
EXTT11=
PLAYORDER=
